<svg xmlns="http://www.w3.org/2000/svg" viewBox="0 0 64 64">
  <rect width="64" height="64" rx="12" fill="#ffd400"/>
  <path fill="#061e16" d="M22 5C12.6 5 5 12.5 5 21.8 5 34.3 22 49.7 22 49.7s17-15.4 17-27.9C39 12.5 31.4 5 22 5Zm0 24.4a7.5 7.5 0 1 1 0-15 7.5 7.5 0 0 1 0 15Z"/>
  <path fill="#061e16" d="M21 37.1C31.5 29 42 26.8 58 28v6.5c-13.8-1.1-23.8 1.1-33.7 8.2L21 37.1Zm4.6 8.3c9.6-6.2 19-8.1 32.4-7v6.4c-11.3-.9-19.5.8-28.8 6.5l-3.6-5.9Zm7.2 8.5c7.5-3.7 15.1-4.8 25.2-3.8v6.3c-8.4-.8-14.6.1-21.3 3.1l-3.9-5.6Z"/>
</svg>
